<svg xmlns="http://www.w3.org/2000/svg" width="32" height="32" viewBox="0 0 24 24" fill="none" stroke-width="2" stroke-linecap="round" stroke-linejoin="round">
  <style>
    .bg { fill: #f3e8ff; }
    .icon { stroke: #9333ea; }
    @media (prefers-color-scheme: dark) {
      .bg { fill: #581c87; }
      .icon { stroke: #c084fc; }
    }
  </style>
  <circle class="bg" cx="12" cy="12" r="11" stroke="none" />
  <path class="icon" d="M16 18a2 2 0 0 1 2 2a2 2 0 0 1 2 -2a2 2 0 0 1 -2 -2a2 2 0 0 1 -2 2m0 -12a2 2 0 0 1 2 2a2 2 0 0 1 2 -2a2 2 0 0 1 -2 -2a2 2 0 0 1 -2 2m-7 12a6 6 0 0 1 6 -6a6 6 0 0 1 -6 -6a6 6 0 0 1 -6 6a6 6 0 0 1 6 6" />
</svg>
